<svg xmlns="http://www.w3.org/2000/svg" width="410" height="404" viewBox="0 0 410 404">
  <defs>
    <linearGradient id="a" x1="50%" x2="50%" y1="0%" y2="100%">
      <stop offset="0%" stop-color="#41D1FF"/>
      <stop offset="100%" stop-color="#BD34FE"/>
    </linearGradient>
    <linearGradient id="b" x1="50%" x2="50%" y1="0%" y2="100%">
      <stop offset="0%" stop-color="#FFEA83"/>
      <stop offset="8.333%" stop-color="#FFDD35"/>
      <stop offset="100%" stop-color="#FFA800"/>
    </linearGradient>
  </defs>
  <g fill="none">
    <path fill="url(#a)" d="M399.641 59.524L215.29 388.65c-3.822 6.717-13.426 6.677-17.194-.073L9.993 59.597c-4.048-7.05 2.69-15.484 10.57-13.643l184.274 42.43a9.497 9.497 0 0 0 4.227-.003l179.938-42.39c7.85-1.848 14.59 6.55 10.573 13.596Z"/>
    <path fill="url(#b)" d="M292.965 1.574L156.94 36.313a4.752 4.752 0 0 0-3.546 3.756l-23.15 126.86a4.752 4.752 0 0 0 5.931 5.476l35.028-9.739c3.118-.867 5.97 2.027 5.048 5.131l-10.391 35.114c-.93 3.146 1.978 6.045 5.1 5.129l21.657-6.331c3.12-.912 6.03 1.98 5.1 5.128l-16.52 56.7c-.956 3.284 2.294 6.227 5.492 4.86l13.386-5.777c3.224-1.39 6.769.92 6.719 4.41l-.53 37.097c-.05 3.529 3.631 5.936 6.852 4.6l8.844-3.68a9.865 9.865 0 0 0 5.904-6.45l54.303-190.47c.94-3.295-2.371-6.29-5.57-4.938l-36.01 15.5c-3.234 1.393-6.866-.948-6.797-4.42l1.33-68.149c.068-3.508-3.504-5.93-6.74-4.552l-90.424 39.447c-3.207 1.4-6.824-.987-6.734-4.488l2.31-86.38c.086-3.219 2.437-5.93 5.594-6.72l134.157-33.78c7.546-1.9 14.01 5.72 11.513 13.11Z"/>
  </g>
</svg>
